<?xml version="1.0" encoding="iso-8859-1"?>
<!-- Uploaded to: SVG Repo, www.svgrepo.com, Generator: SVG Repo Mixer Tools -->
<svg height="800px" width="800px" version="1.1" id="Layer_1" xmlns="http://www.w3.org/2000/svg" xmlns:xlink="http://www.w3.org/1999/xlink" 
	 viewBox="0 0 392.598 392.598" xml:space="preserve">
<path style="fill:#FFC10D;" d="M370.78,32.711c0-6.012-4.848-10.925-10.925-10.925H32.743c-6.012,0-10.925,4.848-10.925,10.925
	v51.911H370.78L370.78,32.711L370.78,32.711z"/>
<path style="fill:#FFFFFF;" d="M21.818,359.822c0,6.012,4.848,10.925,10.925,10.925h327.111c6.012,0,10.925-4.848,10.925-10.925
	V106.408H21.818V359.822z"/>
<path style="fill:#56ACE0;" d="M43.604,128.259v14.222h43.184c6.012,0,10.925,4.848,10.925,10.925s-4.848,10.925-10.925,10.925
	H43.604v29.608h17.455c6.012,0,10.925,4.848,10.925,10.925c0,6.077-4.913,10.796-10.925,10.796H43.604v133.301h305.325V128.259
	H43.604z"/>
<g>
	<path style="fill:#194F82;" d="M359.855,0H32.743C14.707,0,0.032,14.675,0.032,32.711v327.111
		c0,18.101,14.675,32.776,32.711,32.776h327.111c18.036,0,32.711-14.675,32.711-32.711V32.711C392.566,14.675,377.891,0,359.855,0z
		 M21.818,32.711c0-6.012,4.848-10.925,10.925-10.925h327.111c6.012,0,10.925,4.848,10.925,10.925v51.911H21.818V32.711z
		 M370.78,359.822L370.78,359.822c0,6.012-4.848,10.925-10.925,10.925H32.743c-6.012,0-10.925-4.848-10.925-10.925V106.408H370.78
		L370.78,359.822L370.78,359.822z"/>
	<path style="fill:#194F82;" d="M342.141,41.891h-20.945c-6.012,0-10.925,4.848-10.925,10.925c0,6.012,4.848,10.925,10.925,10.925
		h20.945c6.012,0,10.925-4.848,10.925-10.925S348.154,41.891,342.141,41.891z"/>
	<path style="fill:#194F82;" d="M265.665,41.891h-20.945c-6.012,0-10.925,4.848-10.925,10.925c0,6.012,4.848,10.925,10.925,10.925
		h20.945c6.012,0,10.925-4.848,10.925-10.925S271.741,41.891,265.665,41.891z"/>
	<path style="fill:#194F82;" d="M133.139,304.808c6.594,5.947,13.317,2.133,15.451,0c4.267-4.267,4.267-11.119,0-15.451
		l-34.844-34.844l34.844-34.844c4.267-4.267,4.267-11.119,0-15.451c-4.267-4.267-11.119-4.267-15.451,0L90.537,246.82
		c-2.004,2.004-3.168,4.784-3.168,7.758c0,2.844,1.164,5.624,3.168,7.758L133.139,304.808z"/>
	<path style="fill:#194F82;" d="M244.008,304.808c2.133,2.133,8.792,6.077,15.451,0l42.602-42.602
		c2.004-2.004,3.168-4.784,3.168-7.758c0-2.844-1.164-5.624-3.168-7.758l-42.602-42.602c-4.267-4.267-11.119-4.267-15.451,0
		c-4.267,4.267-4.267,11.119,0,15.451l34.844,34.844l-34.844,34.974C239.741,293.624,239.741,300.477,244.008,304.808z"/>
	<path style="fill:#194F82;" d="M169.923,333.188c6.659,2.392,12.283-2.263,13.834-6.788l46.804-135.952
		c1.939-5.689-1.099-11.895-6.788-13.834c-5.689-1.939-11.895,1.099-13.834,6.788L163.2,319.354
		C161.196,325.107,164.299,331.184,169.923,333.188z"/>
</g>
</svg>